# Blender 4.4.3
# www.blender.org
mtllib hammer.mtl
o Plane
v -0.998545 0.121464 0.000000
v -0.121464 0.998545 0.000000
v -0.589246 -0.287834 0.000000
v 0.287834 0.589246 0.000000
v 0.983584 -0.700648 0.000000
v 0.700648 -0.983584 0.000000
v -0.007509 0.290445 0.000000
v -0.290445 0.007509 0.000000
vn -0.0000 -0.0000 -1.0000
vt 0.000000 0.000000
vt 1.000000 0.000000
vt 1.000000 1.000000
vt 0.000000 1.000000
s 0
usemtl copper-wall
f 5/1/1 6/2/1 8/3/1 7/4/1
usemtl titanium-wall
f 4/1/1 3/2/1 1/3/1 2/4/1
