# Blender 5.0.1
# www.blender.org
mtllib build_wood_ramp.mtl
o Plane
v 0.500000 -0.500000 -1.000000
v -0.500000 -0.500000 -1.000000
v 0.500000 0.500000 0.000000
v -0.500000 0.500000 0.000000
v 0.500000 0.000000 -0.500000
v -0.500000 0.000000 -0.500000
v 0.000000 -0.500000 -1.000000
v 0.000000 0.500000 0.000000
v 0.000000 0.000000 -0.500000
vn -0.0000 0.7071 -0.7071
vt 0.500000 0.500000
vt 1.000000 0.500000
vt 1.000000 1.000000
vt 0.500000 1.000000
vt 0.500000 0.000000
vt 1.000000 0.000000
vt 0.000000 0.000000
vt 0.000000 0.500000
vt 0.000000 1.000000
s 0
usemtl dirt1
f 9/1/1 6/2/1 4/3/1 8/4/1
f 7/5/1 2/6/1 6/2/1 9/1/1
f 1/7/1 7/5/1 9/1/1 5/8/1
f 5/8/1 9/1/1 8/4/1 3/9/1
