# Blender 5.0.1
# www.blender.org
mtllib build_wood_pillars.mtl
o Cube
v -0.200000 0.200000 0.000000
v -0.200000 0.200000 -1.000000
v -0.200000 0.400000 0.000000
v -0.200000 0.400000 -1.000000
v -0.400000 0.200000 0.000000
v -0.400000 0.200000 -1.000000
v -0.400000 0.400000 0.000000
v -0.400000 0.400000 -1.000000
vn 1.0000 -0.0000 -0.0000
vn -0.0000 1.0000 -0.0000
vn -1.0000 -0.0000 -0.0000
vn -0.0000 -1.0000 -0.0000
vt 0.375000 0.000000
vt 0.625000 0.000000
vt 0.625000 0.250000
vt 0.375000 0.250000
vt 0.625000 0.500000
vt 0.375000 0.500000
vt 0.625000 0.750000
vt 0.375000 0.750000
vt 0.625000 1.000000
vt 0.375000 1.000000
s 1
usemtl mud1
f 1/1/1 2/2/1 4/3/1 3/4/1
f 3/4/2 4/3/2 8/5/2 7/6/2
f 7/6/3 8/5/3 6/7/3 5/8/3
f 5/8/4 6/7/4 2/9/4 1/10/4
o Cube.001
v 0.400000 -0.400000 -0.000000
v 0.400000 -0.400000 -1.000000
v 0.400000 -0.200000 -0.000000
v 0.400000 -0.200000 -1.000000
v 0.200000 -0.400000 -0.000000
v 0.200000 -0.400000 -1.000000
v 0.200000 -0.200000 -0.000000
v 0.200000 -0.200000 -1.000000
vn 1.0000 -0.0000 -0.0000
vn -0.0000 1.0000 -0.0000
vn -1.0000 -0.0000 -0.0000
vn -0.0000 -1.0000 -0.0000
vt 0.375000 0.000000
vt 0.625000 0.000000
vt 0.625000 0.250000
vt 0.375000 0.250000
vt 0.625000 0.500000
vt 0.375000 0.500000
vt 0.625000 0.750000
vt 0.375000 0.750000
vt 0.625000 1.000000
vt 0.375000 1.000000
s 1
usemtl mud1
f 9/11/5 10/12/5 12/13/5 11/14/5
f 11/14/6 12/13/6 16/15/6 15/16/6
f 15/16/7 16/15/7 14/17/7 13/18/7
f 13/18/8 14/17/8 10/19/8 9/20/8
o Cube.002
v 0.400000 0.200000 -0.000000
v 0.400000 0.200000 -1.000000
v 0.400000 0.400000 -0.000000
v 0.400000 0.400000 -1.000000
v 0.200000 0.200000 -0.000000
v 0.200000 0.200000 -1.000000
v 0.200000 0.400000 -0.000000
v 0.200000 0.400000 -1.000000
vn 1.0000 -0.0000 -0.0000
vn -0.0000 1.0000 -0.0000
vn -1.0000 -0.0000 -0.0000
vn -0.0000 -1.0000 -0.0000
vt 0.375000 0.000000
vt 0.625000 0.000000
vt 0.625000 0.250000
vt 0.375000 0.250000
vt 0.625000 0.500000
vt 0.375000 0.500000
vt 0.625000 0.750000
vt 0.375000 0.750000
vt 0.625000 1.000000
vt 0.375000 1.000000
s 1
usemtl mud1
f 17/21/9 18/22/9 20/23/9 19/24/9
f 19/24/10 20/23/10 24/25/10 23/26/10
f 23/26/11 24/25/11 22/27/11 21/28/11
f 21/28/12 22/27/12 18/29/12 17/30/12
o Cube.003
v -0.200000 -0.400000 0.000000
v -0.200000 -0.400000 -1.000000
v -0.200000 -0.200000 0.000000
v -0.200000 -0.200000 -1.000000
v -0.400000 -0.400000 0.000000
v -0.400000 -0.400000 -1.000000
v -0.400000 -0.200000 0.000000
v -0.400000 -0.200000 -1.000000
vn 1.0000 -0.0000 -0.0000
vn -0.0000 1.0000 -0.0000
vn -1.0000 -0.0000 -0.0000
vn -0.0000 -1.0000 -0.0000
vt 0.375000 0.000000
vt 0.625000 0.000000
vt 0.625000 0.250000
vt 0.375000 0.250000
vt 0.625000 0.500000
vt 0.375000 0.500000
vt 0.625000 0.750000
vt 0.375000 0.750000
vt 0.625000 1.000000
vt 0.375000 1.000000
s 1
usemtl mud1
f 25/31/13 26/32/13 28/33/13 27/34/13
f 27/34/14 28/33/14 32/35/14 31/36/14
f 31/36/15 32/35/15 30/37/15 29/38/15
f 29/38/16 30/37/16 26/39/16 25/40/16
