# Blender 5.0.1
# www.blender.org
mtllib rock.mtl
o Cube.001
v 0.968833 0.224234 -0.602801
v 0.626368 0.516689 -1.234975
v 0.888162 0.146052 -0.988298
v 0.733258 0.300416 -1.238724
v 0.626247 -0.064803 -1.400895
v 0.612259 0.455672 0.132280
v 0.355219 0.528162 0.243321
v -0.420673 -0.796218 0.027902
v -0.059717 -0.921347 -0.120443
v -0.163953 -0.482322 0.347514
v 0.052488 0.315189 0.386877
v -0.449762 0.336384 0.322795
v 0.020257 -0.063537 0.417407
v -0.177528 -0.226617 0.407796
v 0.276065 -0.679193 0.119899
v 0.279264 -0.532976 0.274039
v 0.364105 -0.449529 0.281242
v 0.765811 -0.454780 -0.159519
v 0.832107 -0.288936 -0.140476
v 0.698183 -0.150169 0.120068
v 0.517996 -0.376752 0.209787
v 0.673013 -0.487898 -0.060567
v -0.491156 0.601037 -1.078142
v -0.444259 0.648066 -1.074846
v 0.357389 0.356570 -1.426436
v 0.356461 0.081003 -1.505536
v -0.052068 0.406429 -1.365657
v -0.277245 0.877282 -0.097572
v -0.126562 0.894971 -0.097754
v -0.360889 0.932342 -0.734000
v 0.612088 0.629198 -1.099965
v 0.165952 0.983648 -0.631200
v 0.127344 0.983465 -0.673817
v 0.891068 0.447360 -0.494252
v 0.702737 0.505885 -0.086904
v 0.566526 0.810461 -0.661043
v 0.667790 0.738272 -0.745169
v 0.761638 -0.116108 -1.183932
v 0.651816 -0.173888 -1.357638
v 0.636771 -0.626850 -0.638383
v 0.454347 -0.512276 -1.278462
v 0.052961 -0.961981 -0.636078
v 0.364251 -0.752805 -1.098521
v 0.392536 -0.823095 -0.911578
v 0.118285 -0.640430 -1.300401
v -0.534025 -0.760765 -1.073724
v -0.642707 -0.593823 -1.206963
v 0.120246 -0.727623 -1.221011
v -0.313080 -0.836953 -1.043548
v -0.342704 0.169863 -1.358562
v -0.209786 0.171234 -1.415369
v -0.019673 -0.103215 -1.515819
v -0.225363 -0.410632 -1.449115
v -0.508992 -0.482493 -1.332683
v -0.511934 0.511935 0.175312
v -0.475010 0.355019 0.305395
v -0.823930 0.217616 -0.047026
v -0.446078 0.911903 -0.631497
v -0.471248 0.880013 -0.347592
v -0.795131 0.499819 -0.164523
v -0.826918 0.390734 -0.144369
v -0.761908 0.671027 -0.527089
v -0.754897 0.669412 -0.378228
v -0.780431 0.508630 -0.768478
v -0.856050 0.366877 -0.580346
v -0.807017 0.544327 -0.666251
v -0.783204 -0.672011 -0.262596
v -0.843794 -0.269877 -0.203049
v -0.782619 -0.672271 -0.280126
v -0.789526 -0.469933 -1.006437
v -0.869910 0.011760 -0.684727
v -0.835158 -0.184208 -0.881350
vn -0.1084 0.2746 -0.9554
vn -0.1223 0.0901 0.9884
vn 0.5523 -0.6105 0.5677
vn -0.9493 0.1222 -0.2895
vn 0.7843 -0.5323 -0.3188
vn 0.3548 0.8766 -0.3252
vn 0.3930 0.8476 0.3564
vn 0.9075 0.1206 0.4023
vn 0.8619 0.4306 -0.2677
vn 0.9264 -0.3564 -0.1216
vn 0.4907 -0.8537 0.1745
vn -0.3264 -0.9452 0.0032
vn -0.0726 0.6264 0.7762
vn -0.7324 0.3241 0.5988
vn -0.5642 0.6951 0.4454
vn -0.9890 -0.1445 -0.0308
vn -0.9890 -0.1444 -0.0308
vn 0.8470 -0.0122 -0.5314
vn -0.7448 0.1642 -0.6468
vn 0.0311 -0.7255 0.6875
vn 0.1349 -0.2206 0.9660
vn -0.6539 -0.2063 0.7279
vn 0.7376 -0.3604 0.5711
vn 0.4055 0.0391 0.9132
vn -0.1308 -0.6691 -0.7316
vn -0.3928 0.0637 -0.9174
vn 0.4622 0.2432 -0.8528
vn -0.1159 0.9881 0.1007
vn -0.3606 0.4181 -0.8338
vn -0.3607 0.4181 -0.8338
vn -0.0015 0.7681 -0.6403
vn 0.1844 -0.3247 -0.9277
vn 0.3547 0.8766 -0.3252
vn -0.5983 0.8004 0.0369
vn -0.9565 0.2876 0.0482
vn 0.0859 -0.9282 -0.3620
vn -0.7595 -0.6284 -0.1678
vn 0.2907 -0.6406 -0.7107
vn -0.0726 0.6263 0.7762
vn -0.6360 0.6620 -0.3966
vn -0.9977 0.0197 0.0656
vn 0.6781 0.7036 0.2124
vt 0.491220 0.529899
vt 0.577957 0.544857
vt 0.566200 0.607542
vt 0.506281 0.116656
vt 0.407192 0.211519
vt 0.475077 0.135783
vt 0.561531 0.053725
vt 0.547385 0.074560
vt 0.547601 0.312695
vt 0.260921 0.626951
vt 0.242230 0.559657
vt 0.271104 0.517466
vt 0.288845 0.520639
vt 0.590399 0.726126
vt 0.699223 0.695734
vt 0.600425 0.779761
vt 0.577333 0.777015
vt 0.615334 0.390089
vt 0.635193 0.458080
vt 0.524228 0.383431
vt 0.562391 0.219181
vt 0.623634 0.234829
vt 0.692994 0.357901
vt 0.796506 0.555289
vt 0.768214 0.544305
vt 0.749818 0.578672
vt 0.694583 0.594361
vt 0.782910 0.560950
vt 0.769639 0.587792
vt 0.690553 0.704404
vt 0.493073 0.947908
vt 0.512965 0.873671
vt 0.431330 0.972924
vt 0.334277 0.872431
vt 0.511610 0.177610
vt 0.415481 0.217145
vt 0.210574 0.503704
vt 0.182085 0.562296
vt 0.395921 0.363021
vt 0.250707 0.484342
vt 0.243826 0.726360
vt 0.289959 0.659286
vt 0.658750 0.648176
vt 0.625286 0.658462
vt 0.615790 0.634566
vt 0.498496 0.641333
vt 0.463077 0.577628
vt 0.406409 0.463276
vt 0.437863 0.571620
vt 0.476265 0.204822
vt 0.304223 0.726013
vt 0.334367 0.874692
vt 0.730145 0.519054
vt 0.771459 0.585971
vt 0.680494 0.303028
vt 0.381645 0.734431
vt 0.387180 0.806326
vt 0.336123 0.772733
vt 0.438743 0.811800
vt 0.461125 0.699411
vt 0.645252 0.492959
vt 0.652186 0.555227
vt 0.482220 0.298990
vt 0.530765 0.377330
vt 0.457761 0.297970
vt 0.414952 0.454464
vt 0.524480 0.746138
vt 0.440121 0.391847
vt 0.638513 0.405014
vt 0.271809 0.487063
vt 0.426498 0.376539
vt 0.175419 0.601773
vt 0.392664 0.227539
vt 0.526829 0.765440
s 1
usemtl stone-wall1
f 27/1/1 25/2/1 26/3/1
f 13/4/2 12/5/2 14/6/2
f 17/7/3 16/8/3 15/9/3
f 71/10/4 65/11/4 66/12/4 64/13/4
f 41/14/5 40/15/5 44/16/5 43/17/5
f 36/18/6 31/19/6 33/20/6
f 7/21/7 6/22/7 35/23/7
f 35/23/8 6/22/8 20/24/8
f 34/25/9 1/26/9 3/27/9
f 19/28/10 18/29/10 40/30/10
f 15/9/11 9/31/11 42/32/11
f 9/31/12 8/33/12 69/34/12
f 11/35/13 55/36/13 12/5/13
f 55/36/14 60/37/14 61/38/14
f 59/39/15 63/40/15 60/37/15
f 68/41/16 71/10/17 72/42/16
f 38/43/18 39/44/18 5/45/18
f 52/46/1 51/47/1 27/1/1 26/3/1
f 64/13/19 23/48/19 50/49/19 72/42/19
f 15/9/20 16/8/20 10/50/20
f 69/34/16 68/41/16 72/42/16 70/51/16
f 13/4/2 11/35/2 12/5/2
f 14/6/21 10/50/21 13/4/21
f 68/41/22 67/52/22 8/33/22 10/50/22
f 19/28/8 1/26/8 35/23/8 20/24/8
f 22/53/23 18/54/23 19/28/23
f 41/14/5 39/44/5 38/43/5 40/15/5
f 13/4/24 17/7/24 21/55/24
f 54/56/19 70/51/19 72/42/19 50/49/19
f 46/57/25 47/58/25 54/56/25 49/59/25
f 53/60/26 54/56/26 50/49/26
f 2/61/27 4/62/27 25/2/27
f 29/63/7 7/21/7 35/23/7 32/64/7
f 64/13/4 72/42/4 71/10/4
f 16/8/21 17/7/21 13/4/21 10/50/21
f 4/62/9 2/61/9 31/19/9 3/27/9
f 59/39/28 28/65/28 29/63/28
f 27/1/29 50/49/29 23/48/30 24/66/30
f 31/19/31 2/61/31 25/2/31
f 25/2/31 27/1/31 31/19/31
f 52/46/32 26/3/32 41/14/32 45/67/32
f 24/66/31 30/68/31 33/20/31
f 33/20/6 32/64/33 36/18/6
f 36/18/6 37/69/6 31/19/6
f 36/18/7 32/64/7 35/23/7
f 62/70/34 63/40/34 59/39/34 58/71/34
f 1/26/10 19/28/10 40/30/10 3/27/10
f 1/26/8 34/25/8 35/23/8
f 52/46/26 53/60/26 50/49/26 51/47/26
f 22/53/23 19/28/23 20/24/23 21/55/23
f 38/43/10 3/27/10 40/30/10
f 57/72/14 56/73/14 55/36/14 61/38/14
f 60/37/35 63/40/35 65/11/35 61/38/35
f 39/44/32 41/14/32 26/3/32 5/45/32
f 44/16/11 40/15/11 42/32/11
f 40/15/11 18/54/11 22/53/11
f 57/72/22 68/41/22 10/50/22 14/6/22
f 43/17/36 44/16/36 48/74/36
f 33/20/31 31/19/31 27/1/31 24/66/31
f 67/52/12 69/34/12 8/33/12
f 69/34/12 46/57/12 49/59/12
f 11/35/24 13/4/24 21/55/24 20/24/24
f 42/32/12 9/31/12 69/34/12 49/59/12
f 45/67/25 48/74/25 49/59/25
f 70/51/37 47/58/37 46/57/37 69/34/37
f 4/62/18 3/27/18 38/43/18 5/45/18
f 25/2/27 4/62/27 5/45/27 26/3/27
f 45/67/32 53/60/32 52/46/32
f 11/35/24 20/24/24 6/22/24 7/21/24
f 45/67/38 41/14/38 43/17/38 48/74/38
f 27/1/29 51/47/29 50/49/29
f 22/53/11 15/9/11 42/32/11 40/15/11
f 29/63/13 28/65/39 55/36/13
f 55/36/13 56/73/13 12/5/13
f 29/63/13 55/36/13 11/35/13 7/21/13
f 58/71/40 24/66/40 64/13/40 62/70/40
f 71/10/41 68/41/41 57/72/41 65/11/41
f 66/12/40 62/70/40 64/13/40
f 53/60/25 45/67/25 49/59/25 54/56/25
f 58/71/40 30/68/40 24/66/40
f 24/66/40 23/48/40 64/13/40
f 42/32/36 49/59/36 48/74/36 44/16/36
f 69/34/16 67/52/16 68/41/16
f 34/25/42 37/69/42 36/18/42 35/23/42
f 54/56/19 47/58/19 70/51/19
f 33/20/28 59/39/28 29/63/28 32/64/28
f 63/40/35 62/70/35 66/12/35 65/11/35
f 57/72/41 61/38/41 65/11/41
f 9/31/20 15/9/20 10/50/20 8/33/20
f 21/55/3 17/7/3 15/9/3 22/53/3
f 37/69/9 34/25/9 3/27/9 31/19/9
f 14/6/22 12/5/22 57/72/22
f 12/5/22 56/73/22 57/72/22
f 28/65/15 59/39/15 60/37/15 55/36/15
f 33/20/28 30/68/28 58/71/28 59/39/28
