# Blender 4.4.3
# www.blender.org
mtllib snow_rock.mtl
o Icosphere
v 0.000000 0.000000 1.000000
v -0.723607 -0.525725 0.447220
v 0.276388 -0.850649 0.447220
v 0.894426 0.000000 0.447216
v 0.276388 0.850649 0.447220
v -0.723607 0.525725 0.447220
v -0.276388 -0.850649 -0.447220
v 0.723607 -0.525725 -0.447220
v 0.723607 0.525725 -0.447220
v -0.276388 0.850649 -0.447220
v -0.894426 0.000000 -0.447216
v 0.000000 0.000000 -1.000000
v 0.162456 -0.499995 0.850654
v -0.425323 -0.309011 0.850654
v -0.262869 -0.809012 0.525738
v -0.850648 0.000000 0.525736
v -0.425323 0.309011 0.850654
v 0.525730 0.000000 0.850652
v 0.688189 -0.499997 0.525736
v 0.162456 0.499995 0.850654
v 0.688189 0.499997 0.525736
v -0.262869 0.809012 0.525738
v -0.951058 -0.309013 0.000000
v -0.951058 0.309013 0.000000
v 0.000000 -1.000000 0.000000
v -0.587786 -0.809017 0.000000
v 0.951058 -0.309013 0.000000
v 0.587786 -0.809017 0.000000
v 0.587786 0.809017 0.000000
v 0.951058 0.309013 0.000000
v -0.587786 0.809017 0.000000
v 0.000000 1.000000 0.000000
v -0.688189 -0.499997 -0.525736
v 0.262869 -0.809012 -0.525738
v 0.850648 0.000000 -0.525736
v 0.262869 0.809012 -0.525738
v -0.688189 0.499997 -0.525736
v -0.162456 -0.499995 -0.850654
v -0.525730 0.000000 -0.850652
v 0.425323 -0.309011 -0.850654
v 0.425323 0.309011 -0.850654
v -0.162456 0.499995 -0.850654
vn -0.1505 0.4631 0.8734
vn -0.5972 0.4339 0.6746
vn -0.1505 -0.4631 0.8734
vn 0.3940 -0.2862 0.8734
vn -0.4870 -0.0000 0.8734
vn 0.8485 -0.4631 0.2560
vn -0.9587 -0.1241 0.2560
vn -0.4142 0.8734 0.2560
vn 0.7382 -0.0000 0.6746
vn 0.7027 0.6639 0.2560
vn 0.4492 -0.8627 0.2325
vn -0.8705 0.4339 0.2325
vn 0.1437 0.9619 0.2325
vn -0.1783 -0.9501 0.2560
vn 0.9593 0.1606 0.2325
vn 0.1783 -0.9501 -0.2560
vn -0.2281 0.7020 -0.6746
vn 0.7002 0.2680 -0.6617
vn -0.2281 -0.7020 -0.6746
vn 0.5972 -0.4339 -0.6746
vn -0.3940 -0.2862 -0.8734
vn 0.4870 -0.0000 -0.8734
vn 0.4713 0.5831 -0.6617
vn -0.7382 -0.0000 -0.6746
vn 0.1505 0.4631 -0.8734
vn 0.1505 -0.4631 -0.8734
vn -0.1437 0.9619 -0.2325
vn -0.4492 -0.8627 -0.2325
vn -0.6816 -0.6938 0.2325
vn -0.7027 0.6639 -0.2560
vn -0.9593 0.1606 -0.2325
vn -0.8485 -0.4631 -0.2560
vn 0.8705 0.4339 -0.2325
vn 0.9587 -0.1241 -0.2560
vn 0.6816 -0.6938 -0.2325
vn 0.4142 0.8734 -0.2560
vn 0.2281 0.7020 0.6746
vn 0.2281 -0.7020 0.6746
vn -0.5972 -0.4339 0.6746
vn 0.3940 0.2862 0.8734
vn -0.3940 0.2862 -0.8734
vt 0.590909 0.078731
vt 0.545455 0.157461
vt 0.500000 0.078731
vt 0.545455 0.000000
vt 0.363637 0.157461
vt 0.454546 0.157461
vt 0.227273 0.078731
vt 0.181819 0.157461
vt 0.136365 0.078731
vt 0.181819 0.000000
vt 0.954545 0.078731
vt 0.909091 0.157461
vt 0.863636 0.078731
vt 0.909091 0.000000
vt 0.318182 0.078731
vt 0.363637 0.000000
vt 0.409092 0.078731
vt 0.954545 0.236191
vt 0.863636 0.236191
vt 0.818182 0.157461
vt 0.409092 0.236191
vt 0.318182 0.236191
vt 0.272728 0.157461
vt 0.590909 0.236191
vt 0.500000 0.236191
vt 0.727273 0.157461
vt 0.772727 0.236191
vt 0.681818 0.236191
vt 0.636364 0.157461
vt 0.090910 0.157461
vt 0.136365 0.236191
vt 0.227273 0.236191
vt 0.181819 0.314921
vt 0.090910 0.314921
vt 0.045455 0.236191
vt 0.454546 0.314921
vt 0.545455 0.314921
vt 0.636364 0.314921
vt 0.500000 0.393651
vt 0.727273 0.314921
vt 0.818182 0.314921
vt 0.772727 0.393651
vt 0.272728 0.314921
vt 0.136365 0.393651
vt 0.000000 0.314921
vt 0.863636 0.393651
vt 0.227273 0.393651
vt 0.318182 0.393651
vt 0.272728 0.472382
vt 0.818182 0.472382
vt 0.681818 0.393651
vt 0.363637 0.314921
vt 0.590909 0.393651
vt 0.636364 0.472382
vt 0.045455 0.393651
vt 0.090910 0.472382
vt 0.909091 0.314921
vt 0.681818 0.078731
vt 1.000000 0.157461
vt 0.772727 0.078731
vt 0.727273 0.000000
vt 0.409092 0.393651
vt 0.454546 0.472382
s 0
usemtl snow-wall1
f 20/1/1 22/2/1 17/3/1 1/4/1
f 16/5/2 17/3/2 22/2/2 6/6/2
f 14/7/3 15/8/3 13/9/3 1/10/3
f 13/11/4 19/12/4 18/13/4 1/14/4
f 14/15/5 1/16/5 17/17/5 16/5/5
f 19/12/6 28/18/6 27/19/6 4/20/6
f 16/5/7 24/21/7 23/22/7 2/23/7
f 22/2/8 32/24/8 31/25/8 6/6/8
f 18/13/9 19/12/9 4/20/9 21/26/9
f 21/26/10 30/27/10 29/28/10 5/29/10
f 19/12/11 3/30/11 25/31/11 28/18/11
f 16/5/12 6/6/12 31/25/12 24/21/12
f 22/2/13 5/29/13 29/28/13 32/24/13
f 15/8/14 26/32/14 25/31/14 3/30/14
f 21/26/15 4/20/15 27/19/15 30/27/15
f 25/31/16 7/33/16 34/34/16 28/35/16
f 37/36/17 10/37/17 36/38/17 42/39/17
f 9/40/18 35/41/18 41/42/18
f 34/34/19 7/33/19 33/43/19 38/44/19
f 35/41/20 8/45/20 34/34/20 40/46/20
f 38/47/21 33/43/21 39/48/21 12/49/21
f 41/42/22 35/41/22 40/46/22 12/50/22
f 36/38/23 9/40/23 41/51/23
f 33/43/24 11/52/24 37/36/24 39/48/24
f 42/53/25 36/38/25 41/51/25 12/54/25
f 40/55/26 34/34/26 38/44/26 12/56/26
f 31/25/27 32/24/27 36/38/27 10/37/27
f 25/31/28 26/32/28 33/43/28 7/33/28
f 15/8/29 2/23/29 23/22/29 26/32/29
f 31/25/30 10/37/30 37/36/30 24/21/30
f 23/22/31 24/21/31 37/36/31 11/52/31
f 23/22/32 11/52/32 33/43/32 26/32/32
f 29/28/33 30/27/33 35/41/33 9/40/33
f 27/19/34 8/57/34 35/41/34 30/27/34
f 27/19/35 28/35/35 34/34/35 8/57/35
f 29/28/36 9/40/36 36/38/36 32/24/36
f 20/58/37 21/26/37 5/29/37 22/2/37
f 13/9/38 15/8/38 3/59/38 19/12/38
f 2/23/39 15/8/39 14/15/39 16/5/39
f 18/60/40 21/26/40 20/58/40 1/61/40
f 39/62/41 37/36/41 42/39/41 12/63/41
