# Blender 4.4.3
# www.blender.org
mtllib tree.mtl
o Cube
v 0.600000 -0.600000 -0.000381
v 0.258552 -0.258552 -4.861233
v 0.600000 0.600000 -0.000381
v 0.258552 0.258552 -4.861233
v -0.600000 -0.600000 -0.000381
v -0.258552 -0.258552 -4.861233
v -0.600000 0.600000 -0.000381
v -0.258552 0.258552 -4.861233
v 1.928602 -1.928602 -4.970936
v 1.928602 -1.928602 -8.828139
v 1.928602 1.928602 -4.970936
v 1.928602 1.928602 -8.828139
v -1.928602 -1.928602 -4.970936
v -1.928602 -1.928602 -8.828139
v -1.928602 1.928602 -4.970936
v -1.928602 1.928602 -8.828139
vn 0.9975 -0.0000 -0.0701
vn -0.0000 0.9975 -0.0701
vn -0.9975 -0.0000 -0.0701
vn -0.0000 -0.9975 -0.0701
vn 0.0655 -0.0000 0.9978
vn 1.0000 -0.0000 -0.0000
vn -0.0000 1.0000 -0.0000
vn -1.0000 -0.0000 -0.0000
vn -0.0000 -1.0000 -0.0000
vn -0.0000 0.0655 0.9978
vn -0.0000 -0.0000 -1.0000
vn -0.0000 -0.0655 0.9978
vn -0.0655 -0.0000 0.9978
vt 0.375000 0.000000
vt 0.625000 0.000000
vt 0.625000 0.250000
vt 0.375000 0.250000
vt 0.625000 0.500000
vt 0.375000 0.500000
vt 0.625000 0.750000
vt 0.375000 0.750000
vt 0.625000 1.000000
vt 0.375000 1.000000
vt 0.000000 0.000000
vt 0.875000 0.500000
vt 0.875000 0.750000
s 0
usemtl shrubs1
f 2/11/5 9/11/5 11/11/5 4/11/5
f 9/1/6 10/2/6 12/3/6 11/4/6
f 11/4/7 12/3/7 16/5/7 15/6/7
f 15/6/8 16/5/8 14/7/8 13/8/8
f 13/8/9 14/7/9 10/9/9 9/10/9
f 8/11/10 4/11/10 11/11/10 15/11/10
f 16/5/11 12/12/11 10/13/11 14/7/11
f 13/11/12 9/11/12 2/11/12 6/11/12
f 6/11/13 8/11/13 15/11/13 13/11/13
usemtl dirt1
f 1/1/1 2/2/1 4/3/1 3/4/1
f 3/4/2 4/3/2 8/5/2 7/6/2
f 7/6/3 8/5/3 6/7/3 5/8/3
f 5/8/4 6/7/4 2/9/4 1/10/4
